# xmcd
#
# Track frame offsets:
#   150
#   15177
#   30533
#   48118
#   67875
#   86457
#   100282
#   116689
#   136904
#   157548
#   174341
#
# Disc length: 2552 seconds
#
# Revision: 0
# Processed by: cddbd v1.5.2PL0 Copyright (c) Steve Scherf et al.
# Submitted via: GXTranscoder 2.0.1939
#
DISCID=6f09f60b
DTITLE=Blues Bureau - Voodoo Boogie
DYEAR=2014
DGENRE=Blues
TTITLE0=Born To Boogie
TTITLE1=Green River
TTITLE2=Gypsy Woman
TTITLE3=May Day
TTITLE4=Voodoo Boogie
TTITLE5=Rock'n'Roll Romeo
TTITLE6=Bayou Queen
TTITLE7=Parachute Blues
TTITLE8=San Diego
TTITLE9=Going Up The Country
TTITLE10=Still Crying
EXTD=
EXTT0=
EXTT1=
EXTT2=
EXTT3=
EXTT4=
EXTT5=
EXTT6=
EXTT7=
EXTT8=
EXTT9=
EXTT10=
PLAYORDER=
